<?xml version="1.0" encoding="utf-8"?>
<!-- Generator: Adobe Illustrator 17.0.0, SVG Export Plug-In . SVG Version: 6.00 Build 0)  -->
<!DOCTYPE svg PUBLIC "-//W3C//DTD SVG 1.1//EN" "http://www.w3.org/Graphics/SVG/1.1/DTD/svg11.dtd">
<svg version="1.1" id="Capa_1" xmlns="http://www.w3.org/2000/svg" xmlns:xlink="http://www.w3.org/1999/xlink" x="0px" y="0px"
	 width="28.083px" height="22.877px" viewBox="0 0 28.083 22.877" enable-background="new 0 0 28.083 22.877" xml:space="preserve">
<path d="M24.954,6.732c0-2.788-4.868-6.155-10.912-6.155c-6.046,0-10.914,3.367-10.914,6.155v0.619h21.827V6.732z M4.501,6.112
	c0.762-1.895,4.745-4.293,9.541-4.293c4.794,0,8.779,2.398,9.54,4.293H4.501z M3.128,16.146c0,1.998,0,6.154,6.569,6.154
	c0.083,0,8.315-0.001,8.447-0.005c6.81-0.161,6.81-4.057,6.81-6.15v-0.621H3.128V16.146z M23.709,16.766
	c-0.047,1.99-0.53,4.169-5.591,4.29c-0.198,0.002-8.019,0.003-8.422,0.003c-4.523,0-5.232-1.964-5.317-4.293H23.709z M24.536,9.531
	L3.533,9.584c-1.565,0.004-2.83,1.276-2.825,2.841c0.003,1.564,1.275,2.83,2.839,2.826l21.003-0.053
	c1.565-0.005,2.831-1.276,2.826-2.84C27.371,10.794,26.1,9.527,24.536,9.531z M18.651,14.477c-1.292-0.463-1.812-1.063-2.23-1.544
	c-0.551-0.633-0.882-1.015-3.525-0.537c-1.679,0.303-1.893,0.625-1.899,0.637c0.029-0.033,0.146,0.069,0.192,0.109
	c0.326,0.284,0.282,0.543,0.188,0.713c-0.212,0.38-0.475,0.299-1.254,0.059c-1.086-0.332-1.413-0.841-1.634-1.293
	c-0.024-0.047-0.042-0.089-0.066-0.124c0.019,0.042-0.199,0.057-1.011,0.381c-0.604,0.247-1.104,0.49-1.517,0.686
	c-0.921,0.445-1.477,0.712-1.975,0.404c-0.42-0.267-0.508-0.805-0.511-1.535c0-0.006,0-0.009,0-0.014l1.016-0.001
	c-0.001,0.004,0,0.008,0.001,0.011c0,0.37,0.029,0.554,0.052,0.644c0.199-0.048,0.608-0.245,0.977-0.423
	c0.428-0.206,0.948-0.457,1.577-0.709c1.277-0.517,1.929-0.661,2.369,0.235c0.099,0.2,0.205,0.419,0.612,0.617
	c0.004-0.017,0.008-0.031,0.012-0.048c0.175-0.633,0.98-1.037,2.69-1.345c3.058-0.556,3.692-0.031,4.472,0.87
	c0.376,0.43,0.764,0.879,1.805,1.25c2.621,0.94,4.278-1.875,4.294-1.905l0.881,0.508C23.453,13.362,21.381,15.453,18.651,14.477z
	 M4.037,9.32c-0.51,0-0.995-0.254-1.443-0.757l0.367-0.328c0.361,0.404,0.734,0.601,1.11,0.592c0.609-0.02,1.05-0.573,1.055-0.58
	l0.192,0.151l-0.175-0.17c0.03-0.03,0.74-0.748,1.671-0.748c0.012,0,0.026,0,0.039,0c0.544,0.01,1.042,0.266,1.478,0.755
	C8.693,8.641,9.066,8.837,9.44,8.829c0.611-0.02,1.052-0.573,1.056-0.58l0.192,0.15l-0.174-0.17c0.03-0.03,0.739-0.748,1.67-0.748
	c0.012,0,0.026,0,0.039,0.001c0.545,0.01,1.044,0.265,1.479,0.755c0.362,0.404,0.733,0.601,1.109,0.592
	c0.611-0.02,1.051-0.573,1.056-0.58l0.01,0.009c0.207-0.186,0.824-0.678,1.596-0.678c0.013,0,0.027,0,0.04,0
	c0.545,0.012,1.043,0.266,1.479,0.756c0.361,0.405,0.733,0.602,1.109,0.592c0.61-0.02,1.05-0.574,1.055-0.58l0.192,0.149
	l-0.175-0.17c0.03-0.029,0.739-0.747,1.67-0.747c0.013,0,0.025,0,0.039,0c0.545,0.012,1.043,0.266,1.479,0.756
	c0.361,0.405,0.733,0.602,1.109,0.592l0.017,0.49c-0.015,0.001-0.032,0.001-0.048,0.001c-0.51,0-0.994-0.255-1.443-0.757
	C23.658,8.28,23.28,8.08,22.879,8.07c-0.7-0.013-1.287,0.537-1.345,0.594c-0.086,0.106-0.632,0.728-1.415,0.753
	c-0.016,0.001-0.031,0.001-0.049,0.001c-0.511,0-0.995-0.255-1.443-0.757C18.286,8.28,17.909,8.08,17.508,8.07
	c-0.731-0.013-1.345,0.593-1.35,0.601l-0.002-0.003C15.954,8.877,15.472,9.3,14.829,9.32c-0.015,0-0.031,0-0.047,0
	c-0.51,0-0.995-0.254-1.444-0.757c-0.341-0.382-0.718-0.581-1.119-0.591c-0.701-0.014-1.287,0.537-1.346,0.593
	c-0.086,0.106-0.632,0.728-1.416,0.754c-0.016,0-0.031,0-0.048,0c-0.51,0-0.995-0.254-1.442-0.757
	c-0.342-0.382-0.719-0.581-1.12-0.591C6.147,7.959,5.56,8.511,5.503,8.567C5.415,8.673,4.868,9.295,4.087,9.32
	C4.071,9.32,4.054,9.32,4.037,9.32z"/>
</svg>
