<?xml version="1.0" encoding="utf-8"?>
<!-- Generator: Adobe Illustrator 15.0.0, SVG Export Plug-In . SVG Version: 6.00 Build 0)  -->
<!DOCTYPE svg PUBLIC "-//W3C//DTD SVG 1.1//EN" "http://www.w3.org/Graphics/SVG/1.1/DTD/svg11.dtd">
<svg version="1.1" id="Layer_1" xmlns="http://www.w3.org/2000/svg" xmlns:xlink="http://www.w3.org/1999/xlink" x="0px" y="0px"
	 width="26px" height="26px" viewBox="0 0 26 26" enable-background="new 0 0 26 26" xml:space="preserve">
<path d="M18.345,6.783c0-1.752-3.626-1.427-3.963-1.392V5.375h-2.388v0.767h-0.853c-0.565,0-1.023,0.458-1.023,1.023l0,0
	c0,0.402-0.053,0.75,0.12,0.917V8.066h5.803c0.162-0.08,0.226-0.2,0.226-0.502c0.052-0.123-0.009-0.257-0.009-0.398l0,0
	c0-0.565-0.458-1.023-1.023-1.023h-0.853V5.9c0.011,0,0.022,0.004,0.034,0.003c0.9-0.102,3.422-0.139,3.422,0.953
	c0,1.089-0.685,1.59-1.442,1.905c-0.128-0.091-0.283-0.146-0.453-0.146h-5.499c-0.432,0-0.781,0.35-0.781,0.781v10.478
	c0,0.433,0.35,0.781,0.781,0.781h5.499c0.432,0,0.78-0.349,0.78-0.781V9.396c0-0.075-0.013-0.146-0.032-0.215
	C17.575,8.787,18.345,8.062,18.345,6.783z"/>
</svg>
